PathFileType	4	(X/Y/Z)	Patient4_TMGait_0pt4_01_right_28.trc.trc
DataRate	CameraRate	NumFrames	NumMarkers	Units	OrigDataRate	OrigDataStartFrame	OrigNumFrames
76.923076923077	76.923076923077	4	33	mm	76.923076923077	89	       141
Frame#	Time	Sacral			L.Shoulder			Chest			R.Shoulder			Neck			R.ASIS			L.ASIS			R.Thigh.Superior			R.Thigh.Lateral			R.Thigh.Inferior			R.Patella			L.Thigh.Superior			L.Thigh.Lateral			L.Thigh.Inferior			L.Patella			L.Shank.Superior			L.Shank.Lateral			L.Shank.Inferior			R.Shank.Superior			R.Shank.Lateral			R.Shank.Inferior			R.Heel			R.Midfoot.Superior			R.Midfoot.Lateral			R.Toe			L.Heel			L.Midfoot.Lateral			L.Midfoot.Superior			L.Toe			L.Elbow			L.Wrist			R.Elbow			R.Wrist			
		X1	Y1	Z1	X2	Y2	Z2	X3	Y3	Z3	X4	Y4	Z4	X5	Y5	Z5	X6	Y6	Z6	X7	Y7	Z7	X8	Y8	Z8	X9	Y9	Z9	X10	Y10	Z10	X11	Y11	Z11	X12	Y12	Z12	X13	Y13	Z13	X14	Y14	Z14	X15	Y15	Z15	X16	Y16	Z16	X17	Y17	Z17	X18	Y18	Z18	X19	Y19	Z19	X20	Y20	Z20	X21	Y21	Z21	X22	Y22	Z22	X23	Y23	Z23	X24	Y24	Z24	X25	Y25	Z25	X26	Y26	Z26	X27	Y27	Z27	X28	Y28	Z28	X29	Y29	Z29	X30	Y30	Z30	X31	Y31	Z31	X32	Y32	Z32	X33	Y33	Z33	

89	37.264000000000	894.044594342509	1000.275160088027	485.525430889498	1055.799001956265	1428.134373680112	285.041156603852	1167.482038137905	1365.942414198683	442.709022834203	1090.757978598713	1443.272276536733	618.405420242624	1047.511914513754	1493.306595613231	438.905153803990	1127.227003261025	941.076968812003	594.561524401637	1105.571786213590	961.114309724078	321.232133212645	1176.643869357677	740.335038876780	570.493455217915	1107.335399447384	628.572694614850	641.122414465754	1187.189654146823	573.173139941383	564.252207727718	1185.280645811043	465.597461801516	586.772243994192	1171.685469191228	757.201694395199	354.939463068097	1096.330677684322	633.610998207995	295.724463537824	1187.077398566689	563.955547952368	360.127381106651	1192.908001968335	493.189363638655	370.149956656028	1165.498603550766	418.541505345562	362.662172103299	1077.098561755709	304.134740936031	310.117260575287	1125.196149035392	192.802205910350	382.269472554195	1112.187408513426	393.956531824517	593.975568423614	995.901180596575	346.360611266636	657.821315177121	985.714690701370	237.934115579594	606.029800446055	786.552718169429	157.348683076820	584.348467034433	960.702405659997	120.159173615357	617.814830257018	854.794062205233	106.298605588718	655.740808347014	1039.990000317288	32.849227114868	641.266588962100	996.700248920717	38.258590836771	422.052384810026	1070.947892557393	36.020259649864	341.647760496593	1153.673334476824	96.388802183608	369.961638596671	1282.585470415373	45.795316473012	341.515096795304	1014.185326216170	1076.896782487197	171.661757660361	1122.875202266119	838.942590537009	145.513167328683	1091.954144565748	1096.948962719906	744.109432750501	1238.043182796882	887.370172670334	693.761040672851	
90	37.277000000000	893.547942315738	1000.079162531550	482.371467308442	1057.569387947891	1428.198675545325	282.391432900996	1167.495720011314	1365.941771922966	441.243159362184	1088.959725577489	1443.170296302376	616.219745203392	1047.762618966439	1493.396346048308	436.268894800762	1126.337189798012	941.561346413949	592.890890074552	1105.869618863376	961.234505129881	319.279898691466	1181.192142421723	743.593707467178	569.058691069340	1115.105059590080	630.331064981737	640.287889705951	1197.174017063702	576.503779629893	564.219914609365	1196.779509947062	468.019904944297	587.143162835338	1170.539392271894	756.458771316937	352.436273583284	1094.204374822537	633.495593670470	293.489250831508	1184.366336996785	563.251050059997	357.934246803376	1189.640523928121	492.511316797933	368.058056253926	1161.930240055588	417.932256468510	360.893018361176	1073.021683242460	303.702266187152	308.731012742552	1120.552180292414	192.484855002816	381.467898020380	1122.320845112413	396.527618974323	593.999450224835	1004.285078766908	352.409386645565	657.370750757567	991.699958171447	243.941401618483	606.286461964876	790.598045381245	171.376913392087	584.017821058363	963.185538166773	125.561702643469	618.281035488368	856.107047398983	116.705260443626	655.511442091248	1037.336449583672	32.380097843091	641.462584759584	991.506710043727	38.297370796895	421.958490654576	1065.736953119606	35.960926593011	341.513790236597	1148.576048212980	96.238458598843	369.733991046112	1277.468642352834	45.369167775925	341.437934658222	1019.887190588242	1076.754569517350	167.936678006152	1133.916966449289	840.967751842350	144.350594555708	1085.157861056142	1096.679679824470	741.594041907468	1224.467025346900	880.443407922649	698.928274951221	
91	37.290000000000	893.009798210203	999.918496860807	479.363519987535	1059.242552023830	1428.256466885620	279.922287366942	1167.425121867059	1365.968526505014	439.935636399040	1087.074992926737	1443.085861068849	614.175231616392	1047.967091071601	1493.518468665598	433.786601352834	1125.422827466235	942.104415152230	591.298595597936	1106.076167537980	961.401343292149	317.425747784091	1185.384400241354	747.060683097943	567.745012784273	1122.331427885038	632.424414655445	639.582337362009	1206.538748077098	580.228105258456	564.335518634734	1207.745431026559	470.943502832519	587.504850303221	1169.333915539643	755.789506527985	349.899031298822	1091.892023152333	633.408857250090	291.323184040794	1181.575554885796	562.571984124910	355.662109839708	1186.315100824427	491.873966185492	365.901596916156	1158.304115076004	417.375479910938	359.091642682411	1068.823580579610	303.333727512599	307.329550878521	1115.912647362271	192.228659415495	380.620358444421	1132.172512493422	399.457275397063	594.006887672393	1012.667623734029	358.423874227091	656.959337176467	997.958316351054	249.967403024720	606.477019769463	795.437543349734	184.505917415507	583.580463190916	966.406699286875	131.231384473768	618.701880937424	858.405016799959	126.779967292519	655.232210676475	1035.921310769752	32.312793191159	641.761430184950	986.327419757700	38.353421052348	421.851610878142	1060.543643552148	35.916460182423	341.370958990700	1143.491422402047	96.117861568822	369.477159886609	1272.356849469961	44.994076735831	341.355933257989	1025.907279413285	1076.641629946483	164.362830250708	1144.980295886197	843.045283207075	143.478936027423	1078.115254068002	1096.523758381319	739.223948076551	1210.354887332115	874.152466373560	704.567251698689	
92	37.303000000000	892.436828447926	999.839740819286	476.503184166444	1060.803251773253	1428.343140949036	277.638854423356	1167.277046079450	1366.061562835665	438.774788447355	1085.139400994533	1443.068427689628	612.261592885118	1048.126303867215	1493.705624653484	431.461553612576	1124.489210418848	942.735777527155	589.772457286734	1106.218036033267	961.633899398873	315.667900499438	1189.133163345911	750.677062503121	566.544368760766	1128.892980033792	634.821811109099	638.985351379647	1215.126324291850	584.283828240669	564.550157148318	1218.029815588873	474.311976080362	587.860419800054	1168.079848123675	755.181315953430	347.354472721800	1089.384961983240	633.357635933449	289.278264922232	1178.675632914432	561.915086047421	353.383934783362	1182.894825694857	491.282140372386	363.762308451102	1154.588587832323	416.883522854609	357.317790694113	1064.482982797083	303.041198031439	305.966344867916	1111.259309298474	192.038053772019	379.761426055287	1141.615722931631	402.689256221596	594.026819532456	1020.927701782402	364.229557211733	656.603215403639	1004.478038460777	255.797000707884	606.634350463385	801.027713593312	196.169437368748	583.086877811669	970.484801129248	136.898339191350	619.111141699463	861.791042541687	136.048831843975	654.947629407864	1036.087164010815	32.738758801760	642.181980394323	981.154033138981	38.424136187629	421.735733970617	1055.361507484968	35.886120614512	341.225780418918	1138.411122845922	96.026230570702	369.202750012868	1267.241835237609	44.674272768492	341.270529668578	1032.211368062902	1076.594766035463	160.992107053953	1156.014092466965	845.193075501828	142.914205160019	1070.897032725422	1096.553489874321	737.021829296822	1195.773163713293	868.607074847108	710.587018256017	
